<svg id="Capa_1" enable-background="new 0 0 512 512" height="512" viewBox="0 0 512 512" width="512" xmlns="http://www.w3.org/2000/svg"><path d="m512 256c0 7.32-.31 14.56-.91 21.72-1.21 14.46-3.63 28.58-7.15 42.25-24.02 93.37-99.4 166.14-194.22 186.38-7.04 1.5-14.19 2.72-21.43 3.62-.6.08-1.24.15-1.92.23-3.93.48-7.89.86-11.88 1.13-1.18.09-2.36.16-3.55.23-.07.01-.14.01-.21.02-.71.04-1.42.08-2.13.11-2.21.11-4.42.18-6.63.23-.01.01-.03.01-.04 0-.1.01-.2.02-.3.01h-.18c-.34.01-.69.02-1.03.02-1.47.04-2.94.05-4.42.05-10.08 0-20.02-.58-29.79-1.72-127.35-14.75-226.21-122.98-226.21-254.28 0-141.38 114.62-256 256-256 134.02 0 243.99 103 255.08 234.15.52 6.16.82 12.37.9 18.64v.2c.01.6.01 1.2.01 1.8v.31c.01.3.01.6.01.9z" fill="#3bc3ff"/><path d="m512 256c0 7.32-.31 14.56-.91 21.72-1.21 14.46-3.63 28.58-7.15 42.25-24.02 93.37-99.4 166.14-194.22 186.38-7.04 1.5-14.19 2.72-21.43 3.62-.6.08-1.24.15-1.92.23-3.93.48-7.89.86-11.88 1.13-1.18.09-2.36.16-3.55.23-.07.01-.14.01-.21.02-.71.04-1.42.08-2.13.11-2.21.11-4.42.18-6.63.23-.01.01-.03.01-.04 0-.1.01-.2.02-.3.01h-.18c-.34.01-.69.02-1.03.02-1.47.04-2.94.05-4.42.05-10.08 0-20.02-.58-29.79-1.72-40.74-40.74-105.26-105.26-105.26-105.26l255.74-306.52s90.74 91.49 134.39 135.65c.52 6.16.82 12.37.9 18.64v.2c.01.6.01 1.2.01 1.8v.31c.01.3.01.6.01.9z" fill="#09a1e8"/><path d="m152.745 98.499h-18.381c-13.971 0-25.3 13.667-25.338 30.543h-.002v.085 247.736l35.278-21.842h202.394 26.102 3.895v-256.522z" fill="#f1444f"/><path d="m259.955 98.499v256.522h86.74 26.102 3.895v-256.522z" fill="#db2835"/><path d="m109.026 129.042h-.002v.085 245.577h3.488l30.705-19.011v-257.194h-8.853c-13.971 0-25.3 13.667-25.338 30.543z" fill="#db2835"/><path d="m337.527 121.114h-155.145c-.672 10.351-7.672 18.597-16.458 19.389v153.393c9.061.816 16.221 9.564 16.5 20.369h155.061c.278-10.805 7.438-19.553 16.5-20.369v-153.393c-8.786-.791-15.786-9.038-16.458-19.389z" fill="#fff3dc"/><path d="m337.528 121.114h-77.573v193.151h77.531c.278-10.805 7.438-19.553 16.5-20.369v-153.393c-8.787-.791-15.787-9.038-16.458-19.389z" fill="#ffe7bb"/><path d="m147.467 405.051c-15.024 0-27.247-12.742-27.247-28.405 0-15.662 12.223-28.405 27.247-28.405h217.852v56.809h-217.852z" fill="#fff3dc"/><path d="m259.955 348.242h105.364v56.809h-105.364z" fill="#ebd9be"/><path d="m365.319 393.689h-4.225-212.202c-9.427 0-17.096-7.645-17.096-17.043 0-9.397 7.669-17.043 17.096-17.043h212.202 4.225 11.398v-22.723h-227.825c-22.032 0-39.892 17.804-39.892 39.766 0 21.962 17.86 39.766 39.892 39.766h227.825v-22.724h-11.398z" fill="#db2835"/><path d="m361.094 393.689h-101.139v22.724h116.762v-22.724h-11.398z" fill="#c42639"/><path d="m259.955 336.88v22.724h101.139 4.225 11.398v-22.724z" fill="#c42639"/><path d="m218.192 455.646-22.5-15.821-22.5 15.821v-80h45z" fill="#ffc43a"/></svg>