<svg id="Capa_1" enable-background="new 0 0 512 512" height="512" viewBox="0 0 512 512" width="512" xmlns="http://www.w3.org/2000/svg"><path d="m512 256c0 7.32-.31 14.56-.91 21.72-1.21 14.46-3.63 28.58-7.15 42.25-24.02 93.37-99.4 166.14-194.22 186.38-7.04 1.5-14.19 2.72-21.43 3.62-.6.08-1.24.15-1.92.23-3.93.48-7.89.86-11.88 1.13-1.18.09-2.36.16-3.55.23-.07.01-.14.01-.21.02-.71.04-1.42.08-2.13.11-1.12.06-2.23.1-3.35.14-1.09.04-2.19.07-3.28.09-.01.01-.03.01-.04 0-.1.01-.2.02-.3.01h-.18c-.34.01-.69.02-1.03.02-1.47.04-2.94.05-4.42.05-11.26 0-22.34-.73-33.21-2.14-125.69-16.28-222.79-123.74-222.79-253.86 0-141.38 114.62-256 256-256 135.14 0 245.83 104.73 255.33 237.45.37 5.07.59 10.19.65 15.34v.2c.01.6.01 1.2.01 1.8v.31c.01.3.01.6.01.9z" fill="#f1444f"/><path d="m512 256c0 7.32-.31 14.56-.91 21.72-1.21 14.46-3.63 28.58-7.15 42.25-24.02 93.37-99.4 166.14-194.22 186.38-7.04 1.5-14.19 2.72-21.43 3.62-.6.08-1.24.15-1.92.23-3.93.48-7.89.86-11.88 1.13-1.18.09-2.36.16-3.55.23-.07.01-.14.01-.21.02-.71.04-1.42.08-2.13.11-1.12.06-2.23.1-3.35.14-1.09.04-2.19.07-3.28.09-.01.01-.03.01-.04 0-.1.01-.2.02-.3.01h-.18c-.34.01-.69.02-1.03.02-1.47.04-2.94.05-4.42.05-11.26 0-22.34-.73-33.21-2.14-40.77-40.76-104.84-104.84-104.84-104.84l255.74-306.52s95.45 96.24 137.64 138.95c.37 5.07.59 10.19.65 15.34v.2c.01.6.01 1.2.01 1.8v.31c.01.3.01.6.01.9z" fill="#db2835"/><path d="m149.745 98.499h-18.381c-13.971 0-25.3 13.667-25.338 30.543h-.002v.085 247.736l35.278-21.842h202.394 26.102 3.895v-256.522z" fill="#7696b8"/><path d="m256.955 98.499v256.522h86.74 26.102 3.895v-256.522z" fill="#58799b"/><path d="m106.026 129.042h-.002v.085 245.577h3.488l30.705-19.011v-257.194h-8.853c-13.971 0-25.3 13.667-25.338 30.543z" fill="#3477a6"/><path d="m144.467 405.051c-15.024 0-27.247-12.742-27.247-28.405 0-15.662 12.223-28.405 27.247-28.405h217.852v56.809h-217.852z" fill="#fff3dc"/><path d="m256.955 348.242h105.364v56.809h-105.364z" fill="#ebd9be"/><path d="m362.319 393.689h-4.225-212.202c-9.427 0-17.096-7.645-17.096-17.043 0-9.397 7.669-17.043 17.096-17.043h212.202 4.225 11.398v-22.723h-227.825c-22.032 0-39.892 17.804-39.892 39.766 0 21.962 17.86 39.766 39.892 39.766h227.825v-22.724h-11.398z" fill="#3477a6"/><path d="m358.094 393.689h-101.139v22.724h116.762v-22.724h-11.398z" fill="#185f8d"/><path d="m256.955 336.88v22.724h101.139 4.225 11.398v-22.724z" fill="#185f8d"/><path d="m309.622 220.16c0-29.087-23.58-52.668-52.668-52.668s-52.668 23.58-52.668 52.668c0 21.595 11.76 40.144 30.358 48.273v32.918h44.619v-32.918c18.599-8.129 30.359-26.678 30.359-48.273z" fill="#ffc43a"/><path d="m256.954 167.492v133.858h22.31v-32.918c18.598-8.128 30.358-26.678 30.358-48.273 0-29.087-23.58-52.667-52.668-52.667z" fill="#fda632"/><path d="m234.645 284.881h44.619v27.887h-44.619z" fill="#3bc3ff"/><path d="m256.954 284.881h22.31v27.887h-22.31z" fill="#09a1e8"/><path d="m245.799 122.611h22.31v33.465h-22.31z" fill="#ffc43a"/><path d="m256.954 122.611h11.155v33.465h-11.155z" fill="#fda632"/><path d="m313.844 152.729h22.31v33.465h-22.31z" fill="#fda632" transform="matrix(.707 .707 -.707 .707 215.017 -180.175)"/><path d="m179.986 152.729h22.31v33.465h-22.31z" fill="#ffc43a" transform="matrix(-.707 .707 -.707 -.707 446.125 154.132)"/><path d="m216.641 455.646-22.5-15.821-22.5 15.821v-80h45z" fill="#3bc3ff"/></svg>