<svg id="Capa_1" enable-background="new 0 0 512 512" height="512" viewBox="0 0 512 512" width="512" xmlns="http://www.w3.org/2000/svg"><g><g><g><g><g><g><g><g><g><g><g><g><g><g><g><g><g><g><g><g><circle cx="256" cy="256" fill="#ff6426" r="256"/></g></g></g></g></g></g></g></g></g></g></g></g></g></g></g></g></g></g></g><path d="m426.249 172.216-63.969-63.969-106.28 10-106.28 10 43.14 43.14-111.179 14.312 15.44 15.44-8.703 202.614 98.928 98.928c22.071 6.13 45.336 9.384 69.368 9.317 141.384-.394 255.68-115.328 255.285-256.712-.008-2.701-.071-5.388-.162-8.069l-80.295-80.295z" fill="#cf3b00"/><g><g><g><g><g><path d="m256 393.645-62.256 7.108-105.326-32.852v-189.129h167.582l83.791 62.317z" fill="#fff"/></g></g></g></g><g><g><path d="m423.582 367.901-105.326 31.903-62.256-6.159v-214.873h167.582z" fill="#dfdce0"/></g></g></g><g><g><g><g><g><path d="m256 186.923h-175.542v-20h175.542l87.771 11.44z" fill="#8e562f"/></g></g></g></g><g><g><path d="m256 166.923h175.542v20h-175.542z" fill="#754727"/></g></g></g><g><g><g><g><g><path d="m256 203.226h-96v-84.98h96l48 22.279z" fill="#fff"/></g></g></g></g><g><g><path d="m256 118.246h96v84.98h-96z" fill="#dfdce0"/></g></g></g><g><path d="m279.575 256.284-23.575 29.003h-62.369c0-34.445 27.923-62.369 62.369-62.369z" fill="#adcfff"/><path d="m318.369 285.287h-62.369v-62.369c34.445.001 62.369 27.924 62.369 62.369z" fill="#8bbbff"/></g><g><path d="m352 222.919h45.333v45.333h-45.333z" fill="#8bbbff"/><path d="m352 300.049h45.333v45.333h-45.333z" fill="#8bbbff"/><g fill="#adcfff"><path d="m114.667 222.919h45.333v45.333h-45.333z"/><path d="m114.667 300.049h45.333v45.333h-45.333z"/></g></g><g><g><g><g><g><path d="m256 128.246h-106.28v-20h106.28l53.14 11.441z" fill="#8e562f"/></g></g></g></g><g><g><path d="m256 108.246h106.28v20h-106.28z" fill="#754727"/></g></g></g><path d="m275.8 142.184c-7.602 0-14.535 2.851-19.8 7.536l-15.172 21.781 15.172 29.317c5.265-4.685 12.198-7.536 19.8-7.536 6.323 0 12.181 1.975 17.004 5.333v-51.098c-4.823-3.358-10.681-5.333-17.004-5.333z" fill="#514899"/><path d="m256 149.72c-5.265-4.685-12.198-7.536-19.8-7.536-6.323 0-12.181 1.975-17.004 5.333v51.098c4.823-3.358 10.682-5.333 17.004-5.333 7.602 0 14.535 2.851 19.8 7.536z" fill="#8078be"/><g><g><g><g><g><path d="m256 402.088-62.256 1.666h-105.326v-37.622h167.582l83.791 10.428z" fill="#dfdce0"/></g></g></g></g><g><g><path d="m423.582 403.754h-105.326l-62.256-1.666v-35.956h167.582z" fill="#c8c3ca"/></g></g></g><g><g><g><g><g><path d="m256 403.754h-61.869v-103.705h61.869l30.934 59.322z" fill="#8e562f"/></g></g></g></g><g><g><path d="m256 300.049h61.869v103.704h-61.869z" fill="#754727"/></g></g></g><g><path d="m262.229 351.901-6.229 11.092c-6.126 0-11.092-4.966-11.092-11.092s4.966-11.092 11.092-11.092z" fill="#655e67"/><path d="m256 340.809c6.126 0 11.092 4.966 11.092 11.092s-4.966 11.092-11.092 11.092" fill="#403b41"/></g></g></svg>