<svg height="512" viewBox="0 0 74 74" width="512" xmlns="http://www.w3.org/2000/svg"><g id="color_line" data-name="color line"><path d="m63.17 59.86a34 34 0 0 1 -50.31.03l.29-1.74a13.575 13.575 0 0 1 13.39-11.4h4.71a11.04 11.04 0 0 0 7.15 2.81 11.185 11.185 0 0 0 7.17-2.81h3.89a13.575 13.575 0 0 1 13.39 11.4z" fill="#fcd462"/><path d="m63.17 59.86a32.691 32.691 0 0 1 -3.46 3.3l-1.05-4.7a13.575 13.575 0 0 0 -13.39-11.4h-.09c.13-.1.26-.2.39-.31h3.89a13.575 13.575 0 0 1 13.39 11.4z" fill="#f7be56"/><path d="m72 37a33.869 33.869 0 0 1 -8.83 22.86l-.32-1.71a13.575 13.575 0 0 0 -13.39-11.4h-3.89a11.185 11.185 0 0 1 -7.17 2.81 11.04 11.04 0 0 1 -7.15-2.81h-4.71a13.575 13.575 0 0 0 -13.39 11.4l-.29 1.74a34 34 0 1 1 59.14-22.89z" fill="#89c5cd"/><path d="m72 37a33.869 33.869 0 0 1 -8.83 22.86l-.24-1.28a33.991 33.991 0 0 0 -47.63-46.89 34 34 0 0 1 56.7 25.31z" fill="#6eaaad"/><path d="m38.243 15.13a11.96 11.96 0 0 1 11.757 8.733 19.866 19.866 0 0 1 .68 6.324c-.508 7.295-6.184 14.136-12.434 14.136s-11.928-6.842-12.437-14.136a19.866 19.866 0 0 1 .68-6.324 11.96 11.96 0 0 1 11.754-8.733z" fill="#fcd462"/><path d="m50.68 30.19c-.42 6.01-4.36 11.72-9.24 13.53a16.783 16.783 0 0 0 6.17-11.81 19.51 19.51 0 0 0 -.68-6.33 11.956 11.956 0 0 0 -11.75-8.73 12.364 12.364 0 0 0 -4.61.83 12.475 12.475 0 0 1 7.67-2.55 11.971 11.971 0 0 1 11.76 8.73 20.152 20.152 0 0 1 .68 6.33z" fill="#f7be56"/><g fill="#323c6b"><path d="m7.908 59a.5.5 0 0 1 -.407-.209l-.193-.259c-.093-.123-.186-.247-.273-.374a.5.5 0 0 1 .824-.565c.079.114.163.225.247.336l.208.281a.5.5 0 0 1 -.406.79z"/><path d="m5.791 55.688a.5.5 0 0 1 -.436-.254 37.3 37.3 0 0 1 -4.179-11.34.5.5 0 1 1 .982-.188 36.286 36.286 0 0 0 4.068 11.035.5.5 0 0 1 -.435.746z"/><path d="m52.25 3.357a.5.5 0 0 1 -.193-.039l-.494-.193a.5.5 0 1 1 .374-.928l.209.082c.1.038.2.076.3.116a.5.5 0 0 1 -.193.961z"/><path d="m63.585 10.833a.5.5 0 0 1 -.346-.139 36.681 36.681 0 0 0 -8.716-6.224.5.5 0 1 1 .454-.891 37.676 37.676 0 0 1 8.954 6.393.5.5 0 0 1 -.346.861z"/><path d="m12.86 60.39a.5.5 0 0 1 -.37-.163 34.5 34.5 0 1 1 51.05-.027.5.5 0 0 1 -.862-.245l-.32-1.71a13.026 13.026 0 0 0 -12.898-10.995h-3.71a11.622 11.622 0 0 1 -7.35 2.81 11.508 11.508 0 0 1 -7.331-2.81h-4.529a13.023 13.023 0 0 0 -12.9 10.98l-.291 1.742a.5.5 0 0 1 -.493.418zm25.14-56.89a33.5 33.5 0 0 0 -25.461 55.273l.118-.705a14.019 14.019 0 0 1 13.883-11.818h4.71a.5.5 0 0 1 .323.118 10.575 10.575 0 0 0 6.827 2.692 10.69 10.69 0 0 0 6.849-2.693.5.5 0 0 1 .321-.117h3.89a14.02 14.02 0 0 1 13.884 11.819l.129.691a33.5 33.5 0 0 0 -25.473-55.26z"/><path d="m38 71.5a34.578 34.578 0 0 1 -25.51-11.273.5.5 0 0 1 -.124-.419l.29-1.74a14.019 14.019 0 0 1 13.884-11.818h4.71a.5.5 0 0 1 .323.118 10.575 10.575 0 0 0 6.827 2.692 10.69 10.69 0 0 0 6.849-2.693.5.5 0 0 1 .321-.117h3.89a14.02 14.02 0 0 1 13.884 11.819l.318 1.7a.5.5 0 0 1 -.122.428 34.593 34.593 0 0 1 -25.54 11.303zm-24.607-11.768a33.5 33.5 0 0 0 49.239-.026l-.274-1.464a13.027 13.027 0 0 0 -12.898-10.992h-3.71a11.622 11.622 0 0 1 -7.35 2.81 11.508 11.508 0 0 1 -7.331-2.81h-4.529a13.023 13.023 0 0 0 -12.9 10.98z"/><path d="m38.243 44.823c-6.347 0-12.39-6.823-12.933-14.6h.022a19.008 19.008 0 0 1 .681-6.51 12.776 12.776 0 0 1 24.461.005 18.987 18.987 0 0 1 .679 6.5h.022c-.542 7.782-6.585 14.605-12.932 14.605zm-11.943-14.717c0 .015 0 .03.005.046.508 7.283 6.084 13.671 11.935 13.671s11.43-6.388 11.938-13.671c0-.016 0-.031.005-.046a19.322 19.322 0 0 0 -.663-6.09 11.376 11.376 0 0 0 -11.25-8.387h-.055a11.363 11.363 0 0 0 -11.249 8.382 19.333 19.333 0 0 0 -.666 6.095z"/></g><path d="m51.792 64.146a.65.65 0 0 1 -.3-1.227c.086-.045.17-.093.255-.141l.216-.121a.65.65 0 0 1 .62 1.143l-.193.108c-.1.056-.2.112-.3.165a.649.649 0 0 1 -.298.073z" fill="#fff"/><path d="m40.051 67.958a.65.65 0 0 1 -.077-1.3 33.156 33.156 0 0 0 8.905-2.518.65.65 0 1 1 .5 1.2 34.371 34.371 0 0 1 -9.249 2.609.714.714 0 0 1 -.079.009z" fill="#fff"/></g></svg>